<svg width="24" height="24" viewBox="0 0 24 24" fill="none" xmlns="http://www.w3.org/2000/svg">
<g clip-path="url(#clip0)">
<path d="M23.042 7.32942C21.7767 4.37942 19.6265 2.23397 16.6519 0.9653C15.1651 0.331222 13.6075 0.00733948 11.9803 0.00733948C10.3533 0.00733948 8.80717 0.328163 7.32208 0.9653C4.37208 2.23059 2.21235 4.37467 0.944784 7.32942C0.309608 8.80973 0 10.3606 0 11.9876C0 13.6149 0.309608 15.1786 0.944784 16.6592C2.21235 19.614 4.37235 21.7709 7.32208 23.0365C8.80745 23.6737 10.3533 23.9942 11.9803 23.9942C13.6073 23.9942 15.1651 23.6703 16.6516 23.0365C19.6263 21.7678 21.7765 19.6089 23.0421 16.6592C23.6792 15.1738 24 13.6149 24 11.9876C24 10.3606 23.6794 8.81475 23.042 7.32942ZM21.1264 17.2891C20.1844 18.9046 18.8939 20.1862 17.2686 21.1338C15.6531 22.0758 13.883 22.5508 11.9805 22.5508C10.5504 22.5508 9.18565 22.2754 7.88643 21.711C6.58725 21.1469 5.46553 20.4054 4.52718 19.4673C3.58882 18.5289 2.84196 17.3963 2.28349 16.0949C1.72667 14.7982 1.45682 13.4181 1.45682 11.9876C1.45682 10.0849 1.92431 8.32377 2.86102 6.71275C3.80106 5.09585 5.09184 3.81287 6.70569 2.86805C8.31925 1.92326 10.0778 1.45071 11.9803 1.45071C13.883 1.45071 15.6528 1.92605 17.2683 2.86805C18.8936 3.81565 20.1814 5.09859 21.1262 6.71271C22.0709 8.32656 22.5432 10.0849 22.5432 11.9876C22.5432 13.8904 22.074 15.6635 21.1264 17.2891Z" fill="#8E8E93"/>
<path d="M12.7414 11.8819V5.08466C12.7414 4.67792 12.387 4.34984 11.9802 4.34984C11.5998 4.34984 11.2585 4.67792 11.2585 5.08466V11.9868C11.2585 12 11.2849 12.0526 11.2849 12.0918C11.2585 12.3281 11.3243 12.5249 11.4817 12.6825L15.4053 16.6059C15.6679 16.8684 16.1533 16.8684 16.4156 16.6059C16.7174 16.3041 16.6975 15.8663 16.4156 15.5824L12.7414 11.8819Z" fill="#8E8E93"/>
</g>
<defs>
<clipPath id="clip0">
<rect width="24" height="24" fill="white"/>
</clipPath>
</defs>
</svg>
