<svg width="29" height="25" viewBox="0 0 29 25" fill="none" xmlns="http://www.w3.org/2000/svg">
<path d="M5.20622 5.04746V3.28306C5.20622 2.56364 5.83849 1.97551 6.6119 1.97551H22.3284C23.1018 1.97551 23.7341 2.56364 23.7341 3.28306V15.219L22.0631 13.6647C21.7639 13.3864 21.284 13.3864 20.9848 13.6647C20.838 13.8012 20.759 13.985 20.759 14.1635C20.759 14.3473 20.8324 14.5259 20.9848 14.6624L23.9599 17.4298C24.101 17.5611 24.2986 17.6398 24.4962 17.6398C24.6938 17.6398 24.8913 17.5663 25.0325 17.4298L28.0075 14.6624C28.3067 14.3841 28.3067 13.9377 28.0075 13.6594C27.7083 13.3811 27.2285 13.3811 26.9293 13.6594L25.2583 15.2138V3.28306C25.2583 1.78122 23.9429 0.557686 22.3284 0.557686H6.60625C4.9917 0.557686 3.67635 1.78122 3.67635 3.28306V5.05271C3.67635 5.44655 4.01506 5.76162 4.43846 5.76162C4.86186 5.76162 5.20622 5.4413 5.20622 5.04746Z" fill="#8E8E93"/>
<path d="M25.029 21.4955V19.8365C25.029 19.4672 24.6903 19.1719 24.267 19.1719C23.8436 19.1719 23.5049 19.4672 23.5049 19.8365V21.4955C23.5049 22.17 22.8727 22.7213 22.0993 22.7213H6.37807C5.60471 22.7213 4.97248 22.17 4.97248 21.4955V10.3056L6.64339 11.7628C6.94257 12.0237 7.42239 12.0237 7.72158 11.7628C8.02076 11.5018 8.02076 11.0834 7.72158 10.8225L4.74668 8.22805C4.60556 8.10498 4.40798 8.03113 4.21041 8.03113C4.01283 8.03113 3.81526 8.10005 3.67414 8.22805L0.699241 10.8225C0.552472 10.9505 0.473442 11.1228 0.473442 11.2902C0.473442 11.4575 0.546827 11.6298 0.699241 11.7578C0.998424 12.0188 1.47824 12.0188 1.77743 11.7578L3.44834 10.3006V21.4906C3.44834 22.8986 4.76361 24.0456 6.37807 24.0456H22.0993C23.7194 24.0506 25.029 22.9035 25.029 21.4955Z" fill="#8E8E93"/>
</svg>
