<svg width="15" height="25" viewBox="0 0 15 25" fill="none" xmlns="http://www.w3.org/2000/svg">
<path d="M0.40727 11.5245L11.7695 0.399387C12.0323 0.141869 12.3831 0 12.7571 0C13.1312 0 13.482 0.141869 13.7448 0.399387L14.5815 1.21849C15.126 1.75222 15.126 2.61969 14.5815 3.15262L5.04041 12.4948L14.5921 21.8474C14.8549 22.1049 15 22.4482 15 22.8142C15 23.1807 14.8549 23.524 14.5921 23.7817L13.7554 24.6006C13.4924 24.8581 13.1418 25 12.7677 25C12.3937 25 12.0428 24.8581 11.7801 24.6006L0.40727 13.4653C0.143854 13.207 -0.000827568 12.8621 3.56101e-06 12.4954C-0.000827568 12.1273 0.143854 11.7826 0.40727 11.5245Z" fill="#8E8E93"/>
</svg>
