<svg width="27" height="24" viewBox="0 0 27 24" fill="none" xmlns="http://www.w3.org/2000/svg">
<path d="M14.8551 0.608711C9.39264 0.608711 4.90617 4.34332 3.80911 9.40546L2.09175 6.53411C1.76865 6.05371 1.2839 6.05371 0.960798 6.21384C0.476146 6.53411 0.476146 7.0146 0.637696 7.33486L3.70735 12.2994C3.8689 12.4595 4.03045 12.6196 4.192 12.6196H4.35355C4.5151 12.6196 4.67665 12.6196 4.8382 12.7798L9.84665 9.73705C10.3313 9.41678 10.3313 8.93629 10.1698 8.61602C9.84665 8.13562 9.36191 8.13562 9.0388 8.29576L5.26149 10.5138C5.91094 5.8424 9.96939 2.21032 14.855 2.21032C20.1866 2.21032 24.5487 6.5342 24.5487 11.819C24.5487 17.1037 20.1866 21.4275 14.855 21.4275C14.3704 21.4275 14.0472 21.7478 14.0472 22.2283C14.0472 22.7088 14.3703 23.029 14.855 23.029C21.156 23.029 26.1643 18.0645 26.1643 11.819C26.1645 5.57321 21.156 0.608711 14.8551 0.608711V0.608711Z" fill="#8E8E93"/>
</svg>
