<svg width="15" height="25" viewBox="0 0 15 25" fill="none" xmlns="http://www.w3.org/2000/svg">
<path d="M14.5927 11.5245L3.23054 0.399387C2.96774 0.141869 2.61694 0 2.24288 0C1.86882 0 1.51802 0.141869 1.25522 0.399387L0.418477 1.21849C-0.126 1.75222 -0.126 2.61969 0.418477 3.15262L9.95959 12.4948L0.407891 21.8474C0.145097 22.1049 0 22.4482 0 22.8142C0 23.1807 0.145097 23.524 0.407891 23.7817L1.24464 24.6006C1.50764 24.8581 1.85824 25 2.23229 25C2.60635 25 2.95716 24.8581 3.21995 24.6006L14.5927 13.4653C14.8561 13.207 15.0008 12.8621 15 12.4954C15.0008 12.1273 14.8561 11.7826 14.5927 11.5245Z" fill="#8E8E93"/>
</svg>
