<?xml version="1.0" encoding="iso-8859-1"?>
<!-- Generator: Adobe Illustrator 19.1.0, SVG Export Plug-In . SVG Version: 6.00 Build 0)  -->
<svg xmlns="http://www.w3.org/2000/svg" xmlns:xlink="http://www.w3.org/1999/xlink" version="1.1" id="Capa_1" x="0px" y="0px" viewBox="0 0 477.075 477.075" style="enable-background:new 0 0 477.075 477.075;" xml:space="preserve" width="512px" height="512px">
<g>
	<g>
		<path d="M358.387,159.975h-38.9c-7.5,0-13.5,6-13.5,13.5s6,13.5,13.5,13.5h38.9c19.1,0,34.7,15.6,34.7,34.7v193.8    c0,19.1-15.6,34.7-34.7,34.7h-239.8c-19.1,0-34.7-15.6-34.7-34.7v-193.9c0-19.1,15.6-34.7,34.7-34.7h38.9c7.5,0,13.5-6,13.5-13.5    s-6-13.5-13.5-13.5h-38.9c-34,0-61.7,27.7-61.7,61.7v193.8c0,34,27.7,61.7,61.7,61.7h239.9c34,0,61.7-27.7,61.7-61.7v-193.8    C420.087,187.575,392.387,159.975,358.387,159.975z" fill="#8e8e93"/>
		<path d="M166.987,104.175l58-58v218c0,7.5,6,13.5,13.5,13.5s13.5-6,13.5-13.5v-218l58,58c2.6,2.6,6.1,4,9.5,4s6.9-1.3,9.5-4    c5.3-5.3,5.3-13.8,0-19.1l-81.1-81.1c-5.3-5.3-13.8-5.3-19.1,0l-81.1,81.1c-5.3,5.3-5.3,13.8,0,19.1    C153.187,109.475,161.687,109.475,166.987,104.175z" fill="#8e8e93"/>
	</g>
</g>
<g>
</g>
<g>
</g>
<g>
</g>
<g>
</g>
<g>
</g>
<g>
</g>
<g>
</g>
<g>
</g>
<g>
</g>
<g>
</g>
<g>
</g>
<g>
</g>
<g>
</g>
<g>
</g>
<g>
</g>
</svg>
